<svg width="23" height="26" viewBox="0 0 23 26" fill="none" xmlns="http://www.w3.org/2000/svg">
<path fill-rule="evenodd" clip-rule="evenodd" d="M4.86039 3.43117C6.49384 1.86482 8.70927 0.984848 11.0193 0.984848C13.3294 0.984848 15.5448 1.86482 17.1782 3.43117C18.8117 4.99752 19.7293 7.12196 19.7293 9.33712V15.8519L21.6572 18.6193C21.8928 18.9611 22.0277 19.3578 22.0475 19.7671C22.0672 20.1765 21.9711 20.5834 21.7693 20.9447C21.5676 21.3059 21.2677 21.6081 20.9014 21.8193C20.5351 22.0304 20.1161 22.1426 19.6887 22.1439H2.34993C1.9253 22.1406 1.5094 22.0279 1.14575 21.8177C0.782104 21.6074 0.484078 21.3073 0.282861 20.9487C0.0816434 20.5901 -0.0153681 20.1862 0.00197773 19.7794C0.0193236 19.3725 0.150389 18.9776 0.381459 18.636L2.30928 15.8519V9.33712C2.30928 7.12196 3.22694 4.99752 4.86039 3.43117ZM13.0285 24.8707C12.4411 25.2695 11.7392 25.4841 11.0194 25.4849C10.2996 25.4841 9.59773 25.2695 9.01026 24.8707C8.42278 24.4719 7.97855 23.9083 7.73862 23.2576H14.3002C14.0602 23.9083 13.616 24.4719 13.0285 24.8707Z" fill="#060608"/>
</svg>
